Dark Passage (1947)
106 min - Film-Noir | Thriller - 27 September 1947 (USA)

A man convicted of murdering his wife escapes from prison and works with a woman to try and prove his innocence.

Director: Delmer Daves
Writers: Delmer Daves (screenplay), David Goodis (novel)
Stars: Humphrey Bogart, Lauren Bacall and Bruce Bennett


Format : Matroska
File size : 1.35 GiB
Duration : 1h 46mn
Overall bit rate : 1 815 Kbps
Encoded date : UTC 2012-03-09 19:04:35
Writing application : mkvmerge v4.0.0 ('The Stars were mine') built on Jun 5 2010 15:58:29
Writing library : libebml v1.0.0 + libmatroska v1.0.0

Video
ID : 1
Format : AVC
Format/Info : Advanced Video Codec
Format profile : Main@L3.1
Format settings, CABAC : Yes
Format settings, ReFrames : 2 frames
Muxing mode : Container profile=Unknown@3.1
Codec ID : V_MPEG4/ISO/AVC
Duration : 1h 46mn
Bit rate : 1 395 Kbps
Width : 768 pixels
Height : 576 pixels
Display aspect ratio : 4:3
Frame rate : 29.970 fps
Standard : NTSC
Resolution : 8 bits
Colorimetry : 4:2:0
Scan type : Progressive
Bits/(Pixel*Frame) : 0.105
Stream size : 1.03 GiB (77%)

Audio #1
ID : 2
Format : AC-3
Format/Info : Audio Coding 3
Codec ID : A_AC3
Duration : 1h 46mn
Bit rate mode : Constant
Bit rate : 192 Kbps
Channel(s) : 2 channels
Channel positions : Front: L R
Sampling rate : 48.0 KHz
Stream size : 146 MiB (11%)
Title : Russian voice-over
Language : Russian

Audio #2
ID : 3
Format : AC-3
Format/Info : Audio Coding 3
Codec ID : A_AC3
Duration : 1h 46mn
Bit rate mode : Constant
Bit rate : 192 Kbps
Channel(s) : 2 channels
Channel positions : Front: L R
Sampling rate : 48.0 KHz
Stream size : 146 MiB (11%)
Title : English

Text #1
ID : 4
Format : UTF-8
Codec ID : S_TEXT/UTF8
Codec ID/Info : UTF-8 Plain Text
Language : English

Text #2
ID : 5
Format : UTF-8
Codec ID : S_TEXT/UTF8
Codec ID/Info : UTF-8 Plain Text
Language : French